<svg id="bulb.svg" xmlns="http://www.w3.org/2000/svg" width="120" height="120" viewBox="0 0 120 120">
  <defs>
    <style>
      .cls-1 {
        fill: #fff;
      }

      .cls-2 {
        fill: #df5c64;
        fill-rule: evenodd;
      }
    </style>
  </defs>
  <circle id="bg" class="cls-1" cx="60" cy="60" r="60"/>
  <path id="lightball" class="cls-2" d="M389.86,1576.14c0-4.96-5.848-7.15-10-7.15a1.43,1.43,0,0,0,0,2.86c2.367,0,7.144,1.21,7.144,4.29A1.429,1.429,0,1,0,389.86,1576.14Zm7.144,0a12.692,12.692,0,0,1-3.036,8.03c-0.848.99-1.831,1.92-2.724,2.95-3.17,3.8-5.848,8.26-6.3,13.31H374.77c-0.447-5.05-3.126-9.51-6.3-13.31-0.893-1.03-1.875-1.96-2.723-2.95a12.692,12.692,0,0,1-3.036-8.03c0-8.93,9.063-14.29,17.144-14.29S397,1567.21,397,1576.14Zm5.715,0c0-12.15-11.564-20-22.86-20s-22.859,7.85-22.859,20a17.156,17.156,0,0,0,4.6,11.96c3.08,3.4,7.143,8.17,7.5,12.95a4.3,4.3,0,0,0-2.1,3.66,4.223,4.223,0,0,1,0,5.72,4.278,4.278,0,0,0,2.009,3.61,4.4,4.4,0,0,0-.58,2.1c0,2.9,2.277,4.29,4.866,4.29a7.172,7.172,0,0,0,13.126,0c2.59,0,4.867-1.39,4.867-4.29a4.4,4.4,0,0,0-.58-2.1,4.278,4.278,0,0,0,2.009-3.61,4.223,4.223,0,0,1,0-5.72,4.3,4.3,0,0,0-2.1-3.66c0.358-4.78,4.42-9.55,7.5-12.95A17.156,17.156,0,0,0,402.719,1576.14Z" transform="translate(-320 -1530)"/>
</svg>
