<svg id="des.svg" xmlns="http://www.w3.org/2000/svg" width="139" height="139" viewBox="0 0 139 139"><defs><style>.cls-1,.cls-2{fill:#fff}.cls-1{fill-opacity:0;stroke:#fff;stroke-linejoin:round;stroke-width:5px}.cls-3{fill:#c8535a;fill-rule:evenodd}</style></defs><circle id="countur" class="cls-1" cx="69.5" cy="69.5" r="65"/><circle id="bg" class="cls-2" cx="69.5" cy="69.5" r="60"/><path id="m_wand" data-name="m wand" class="cls-3" d="M673.385 1580.54l-4.18-4.18 11.445-11.45 4.18 4.18zm17.46-11.45a2.461 2.461 0 0 0-.7-1.76l-7.734-7.73a2.558 2.558 0 0 0-3.516 0l-50.234 50.23a2.555 2.555 0 0 0 0 3.52l7.734 7.73a2.531 2.531 0 0 0 3.516 0l50.234-50.23a2.444 2.444 0 0 0 .7-1.76zm-52.773-7.42l-1.172-3.83-1.172 3.83-3.828 1.17 3.828 1.17 1.172 3.83 1.172-3.83 3.828-1.17zm13.672 6.33l-2.344-7.66-2.344 7.66-7.656 2.34 7.656 2.35 2.344 7.65 2.344-7.65 7.656-2.35zm36.328 18.67l-1.172-3.83-1.172 3.83-3.828 1.17 3.828 1.17 1.172 3.83 1.172-3.83 3.828-1.17zm-25-25l-1.172-3.83-1.172 3.83-3.828 1.17 3.828 1.17 1.172 3.83 1.172-3.83 3.828-1.17z" transform="translate(-590.5 -1520.5)"/></svg>