<svg id="rocket.svg" xmlns="http://www.w3.org/2000/svg" width="139" height="139" viewBox="0 0 139 139"><defs><style>.cls-1,.cls-2{fill:#fff}.cls-1{fill-opacity:0;stroke:#fff;stroke-linejoin:round;stroke-width:5px}.cls-3{fill:#c8535a;fill-rule:evenodd}</style></defs><circle id="countur" class="cls-1" cx="69.5" cy="69.5" r="65"/><circle id="bg" class="cls-2" cx="69.5" cy="69.5" r="60"/><path id="rocket" class="cls-3" d="M1242.75 1570.5a3.75 3.75 0 1 1-3.75-3.75 3.751 3.751 0 0 1 3.75 3.75zm8.75-11.25a1.308 1.308 0 0 0-1.33-1.25c-13.59 0-21.05 3.12-30.82 12.85-2.23 2.27-4.53 4.85-6.87 7.62l-14.81.78a1.411 1.411 0 0 0-1.01.62l-8.75 15a1.308 1.308 0 0 0 .19 1.53l2.5 2.5a1.341 1.341 0 0 0 .9.35 1.048 1.048 0 0 0 .35-.04l10.78-3.32 10.98 10.98-3.32 10.78a1.348 1.348 0 0 0 .31 1.25l2.5 2.5a1.4 1.4 0 0 0 .9.35 1.107 1.107 0 0 0 .62-.16l15-8.75a1.392 1.392 0 0 0 .63-1.01l.78-14.81c2.77-2.34 5.35-4.65 7.62-6.87 9.26-9.3 12.85-17.93 12.85-30.9z" transform="translate(-1150.5 -1520.5)"/></svg>